<?xml version="1.0" encoding="UTF-8" standalone="no"?>
<svg width="58px" height="59px" viewBox="0 0 58 59" version="1.1" xmlns="http://www.w3.org/2000/svg" xmlns:xlink="http://www.w3.org/1999/xlink">
    <!-- Generator: Sketch 3.6.1 (26313) - http://www.bohemiancoding.com/sketch -->
    <title>Artboard</title>
    <desc>Created with Sketch.</desc>
    <defs></defs>
    <g id="assets" stroke="none" stroke-width="1" fill="#fff" fill-rule="evenodd">
        <g id="Artboard" fill="#fff">
            <path d="M0.3,58.7 C0.5,58.9 0.7,59 1,59 C1.3,59 1.5,58.9 1.7,58.7 L10.5,49.9 C12.2,50.7 16.8,52.6 22.6,52.6 C28.1,52.6 34.7,50.9 40.9,44.7 C53.8,31.8 57.8,3.3 58,2.1 C58,1.8 57.9,1.5 57.7,1.2 C57.5,0.9 57.2,1 56.8,1 C55.6,1.2 26.2,6.1 14.3,18.1 C1.7,30.7 7.5,45.2 9.1,48.5 L0.3,57.3 C-0.1,57.7 -0.1,58.3 0.3,58.7 L0.3,58.7 Z M15.7,19.5 C25.8,9.4 49.8,4.4 55.8,3.2 C54.8,9.1 50.3,32.4 39.5,43.3 C28.4,54.4 15.9,50.1 12,48.4 L31.7,28.7 C32.1,28.3 32.1,27.7 31.7,27.3 C31.3,26.9 30.7,26.9 30.3,27.3 L10.6,47 C8.9,43.1 4.5,30.7 15.7,19.5 L15.7,19.5 Z" id="Shape"></path>
        </g>
    </g>
</svg>