<?xml version="1.0" encoding="UTF-8" standalone="no"?>
<svg width="62px" height="52px" viewBox="0 0 62 52" version="1.1" xmlns="http://www.w3.org/2000/svg" xmlns:xlink="http://www.w3.org/1999/xlink">
    <!-- Generator: Sketch 3.6.1 (26313) - http://www.bohemiancoding.com/sketch -->
    <title>Artboard</title>
    <desc>Created with Sketch.</desc>
    <defs></defs>
    <g id="assets" stroke="none" stroke-width="1" fill="none" fill-rule="evenodd">
        <g id="Artboard" fill="#FFFFFF">
            <path d="M19.7,12.3 C19.3,11.9 18.7,11.9 18.3,12.3 C17.9,12.7 17.9,13.3 18.3,13.7 L20.3,15.7 C20.5,15.9 20.8,16 21,16 C21.2,16 21.5,15.9 21.7,15.7 C22.1,15.3 22.1,14.7 21.7,14.3 L19.7,12.3 L19.7,12.3 Z" id="Shape"></path>
            <path d="M30.3,8.3 L28.3,10.3 C27.9,10.7 27.9,11.3 28.3,11.7 C28.5,11.9 28.8,12 29,12 C29.2,12 29.5,11.9 29.7,11.7 L31.7,9.7 C32.1,9.3 32.1,8.7 31.7,8.3 C31.3,7.9 30.7,7.9 30.3,8.3 L30.3,8.3 Z" id="Shape"></path>
            <path d="M43,10 C42.4,10 42,10.4 42,11 L42,13 C42,13.6 42.4,14 43,14 C43.6,14 44,13.6 44,13 L44,11 C44,10.4 43.6,10 43,10 L43,10 Z" id="Shape"></path>
            <path d="M62,24 C62,21.8 60.2,20 58,20 L55.9,20 C55.4,8.9 46.2,0 35,0 L27,0 C15.8,0 6.6,8.9 6.1,20 L4,20 C1.8,20 0,21.8 0,24 C0,25.8 1.2,27.4 2.9,27.8 C1.1,29.3 0,31.5 0,34 C0,37.7 2.6,40.9 6,41.7 C6.4,47.5 11.2,52 17,52 L45,52 C50.8,52 55.6,47.5 56,41.7 C59.5,40.8 62,37.7 62,34 C62,31.5 60.9,29.3 59.1,27.8 C60.8,27.4 62,25.8 62,24 L62,24 Z M27,2 L35,2 C45.1,2 53.4,10 53.9,20 L8.1,20 C8.6,10 16.9,2 27,2 L27,2 Z M45,50 L17,50 C12.4,50 8.6,46.5 8.1,42 L54,42 C53.4,46.5 49.6,50 45,50 L45,50 Z M60,34 C60,37.3 57.3,40 54,40 L8,40 C4.7,40 2,37.3 2,34 C2,30.7 4.7,28 8,28 L32.7,28 L40.4,33.8 C40.6,33.9 40.8,34 41,34 C41.2,34 41.4,33.9 41.6,33.8 L49.3,28 L54,28 C57.3,28 60,30.7 60,34 L60,34 Z M58,26 L49,26 C48.8,26 48.6,26.1 48.4,26.2 L41,31.8 L33.6,26.3 C33.4,26.1 33.2,26 33,26 L4,26 C2.9,26 2,25.1 2,24 C2,22.9 2.9,22 4,22 L58,22 C59.1,22 60,22.9 60,24 C60,25.1 59.1,26 58,26 L58,26 Z" id="Shape"></path>
        </g>
    </g>
</svg>